<svg width="20" height="20" viewBox="0 0 20 20" fill="none" xmlns="http://www.w3.org/2000/svg">
<path d="M9.87501 1C8.0523 1.00215 6.30487 1.72717 5.01602 3.01602C3.72718 4.30486 3.00216 6.0523 3.00001 7.875C2.99782 9.36452 3.48437 10.8136 4.38501 12C4.38501 12 4.57251 12.2469 4.60313 12.2825L9.87501 18.5L15.1494 12.2794C15.1769 12.2463 15.365 12 15.365 12L15.3656 11.9981C16.2658 10.8123 16.7521 9.36383 16.75 7.875C16.7479 6.0523 16.0228 4.30486 14.734 3.01602C13.4451 1.72717 11.6977 1.00215 9.87501 1ZM9.87501 10.375C9.38055 10.375 8.89721 10.2284 8.48608 9.95367C8.07496 9.67897 7.75453 9.28852 7.56531 8.83171C7.37609 8.37489 7.32658 7.87223 7.42304 7.38727C7.51951 6.90232 7.75761 6.45686 8.10724 6.10723C8.45687 5.7576 8.90233 5.5195 9.38728 5.42304C9.87223 5.32657 10.3749 5.37608 10.8317 5.5653C11.2885 5.75452 11.679 6.07495 11.9537 6.48607C12.2284 6.8972 12.375 7.38055 12.375 7.875C12.3742 8.53779 12.1105 9.17319 11.6419 9.64185C11.1732 10.1105 10.5378 10.3742 9.87501 10.375Z" fill="white"/>
</svg>
