<svg width="20" height="16" viewBox="0 0 20 16" fill="none" xmlns="http://www.w3.org/2000/svg">
<g clip-path="url(#clip0_1_160)">
<path d="M6.02683 3.3672C5.72703 2.35152 4.91324 2.46284 4.35683 2.93589C2.9862 4.20197 1.20154 6.85939 2.34374 10.6859C3.30031 13.9276 7.28064 16.0007 7.28064 16.0007H2.64064C2.64064 16.0007 0.244811 13.3155 0.0306387 10.1572C-0.240621 6.16422 1.35857 3.6459 3.21463 2.00421C4.95645 0.459848 6.61263 0.000732422 6.61263 0.000732422L10.0005 11.1007L13.3883 0.000732422C13.3883 0.000732422 15.0445 0.459849 16.7863 2.00421C18.6424 3.6459 20.2415 6.16422 19.9703 10.1572C19.7561 13.3155 17.3603 16.0007 17.3603 16.0007H12.7203C12.7203 16.0007 16.7003 13.9276 17.6572 10.6859C18.7994 6.85983 17.0147 4.20241 15.6441 2.93589C15.0873 2.46284 14.2735 2.35152 13.9741 3.3672C12.9461 6.60894 10.0009 15.8972 10.0009 15.8972C10.0009 15.8972 7.05564 6.60583 6.02767 3.3672H6.02683Z" fill="white"/>
</g>
<defs>
<clipPath id="clip0_1_160">
<rect width="20" height="16" fill="white"/>
</clipPath>
</defs>
</svg>
